<svg xmlns="http://www.w3.org/2000/svg" width="400" height="147" viewBox="0 0 298.864 111">
  <g id="그룹_46" data-name="그룹 46" transform="translate(-923 -173.583)">
    <text id="Moment" transform="translate(923 251.583)" fill="#816b72" font-size="70" font-family="Apple-Chancery, Apple Chancery"><tspan x="0" y="0">Moment</tspan></text>
    <path id="패스_47" data-name="패스 47" d="M246.031,77.357c4.061-8.331,8.019-16.577,7.872-26.082,9.24-3.373,16.349-9.991,24.01-15.768.607-.458,1.206-.927,1.8-1.387L289.8,44.172c-6,8.34-13.391,15.787-17.15,25.9a32.759,32.759,0,0,0-13.456,2.407c-4.3,1.653-8.473,3.619-12.616,5.411,2.5-2.49,5.119-5.089,7.73-7.695,2.871-2.864,5.715-5.757,8.627-8.579a3.5,3.5,0,0,1,1.778-.726c1.03-.178,1.734-.63,1.732-1.72a1.533,1.533,0,0,0-1.72-1.675c-1.085.035-1.57.739-1.642,1.793-.03.43-.026,1-.284,1.257q-8.352,8.438-16.768,16.813" transform="translate(910.486 236.472) rotate(-11)" fill="#c996a7"/>
    <path id="패스_48" data-name="패스 48" d="M297.769,15.194,308.8,26.123c-2.13,1.812-4.3,3.661-6.473,5.5Q298.341,35,294.34,38.363c-.539.453-.876.821-.564,1.662a2.21,2.21,0,0,1-1.056,2.83,2.338,2.338,0,0,1-3.023-.36q-4.182-4.116-8.293-8.305a2.306,2.306,0,0,1-.285-3.029,2.155,2.155,0,0,1,2.723-1.01c.912.38,1.277,0,1.766-.581,4.057-4.814,8.13-9.615,12.161-14.376" transform="translate(910.486 236.472) rotate(-11)" fill="#c996a7"/>
    <path id="패스_49" data-name="패스 49" d="M207.065,89.656c-15.725-.193-30.782-4.248-45.088-9.875-6.672-2.624-13.221-5.4-20.046-7.836-16.193-5.776-31.584-4.343-46.143,2.714-2.568,1.244-4.972,2.645-7.6,3.823-.708.316-1.978.074-2.99.089.224-.57.161-1.369.713-1.676C97.335,70.549,109.438,64.8,125.3,66.388a106.033,106.033,0,0,1,21.5,4.762c9.251,2.96,17.8,6.873,26.9,10.074,18.661,6.57,38.005,8.285,58.032,2.837,3.047-.828,5.873-2.017,8.913-2.86a13.508,13.508,0,0,1,3.517.053c-.615.631-1.008,1.513-1.879,1.855a95.735,95.735,0,0,1-35.216,6.547" transform="matrix(0.999, -0.035, 0.035, 0.999, 919.86, 193.89)" fill="#c996a7"/>
  </g>
</svg>
